# xmcd CD database file
#
# Track frame offsets:
#	150
#	29345
#	66695
#	137295
#	165640
#	207833
#	234028
#
# Disc length: 3815 seconds
#
# Revision: 0
# Processed by: cddbd v1.5.1PL0 Copyright (c) Steve Scherf et al.
# Submitted via: CDex 1.51
#
DISCID=570ee507
DTITLE=Lasse Lindgren - Walkin´around
DYEAR=2000
DGENRE=Jazz
TTITLE0=The hip bop tune
TTITLE1=Jumpin´nuts
TTITLE2=The yellow house suite I
TTITLE3=Walkin´around
TTITLE4=I´m a member
TTITLE5=Red aero
TTITLE6=Good bye, i hope you liked it
EXTD=YEAR: 2000
EXTT0=
EXTT1=
EXTT2=
EXTT3=
EXTT4=
EXTT5=
EXTT6=
PLAYORDER=
